<svg width="111" height="103" viewBox="0 0 111 103" fill="none" xmlns="http://www.w3.org/2000/svg">
<path d="M34.8453 0.223999C35.9973 0.223999 36.8613 0.602 37.4373 1.358C38.0493 2.114 38.3553 3.05 38.3553 4.166C38.3553 4.886 38.2293 5.642 37.9773 6.434C37.7253 7.226 37.4373 7.946 37.1133 8.594C36.9693 8.702 36.8253 8.738 36.6813 8.702C36.5733 8.63 36.5373 8.504 36.5733 8.324C36.8253 7.676 36.9513 7.01 36.9513 6.326C36.9513 5.642 36.8073 5.03 36.5193 4.49C36.2673 3.914 35.8353 3.446 35.2233 3.086C34.6473 2.726 33.9093 2.546 33.0093 2.546C31.7133 2.546 30.5253 2.798 29.4453 3.302C28.3653 3.77 27.3573 4.616 26.4213 5.84C25.5213 7.064 24.6573 8.738 23.8293 10.862C23.0013 12.95 22.1733 15.614 21.3453 18.854C20.6613 21.446 19.8693 23.714 18.9693 25.658C18.0693 27.602 17.0253 29.24 15.8373 30.572C17.3853 31.184 19.0053 31.724 20.6973 32.192C22.4253 32.66 24.3513 32.894 26.4753 32.894C28.1673 32.894 29.5533 32.606 30.6333 32.03C31.7493 31.418 32.7213 30.284 33.5493 28.628C33.6933 28.556 33.8193 28.574 33.9273 28.682C34.0353 28.754 34.0533 28.88 33.9813 29.06C33.1173 31.004 31.9653 32.48 30.5253 33.488C29.0853 34.496 27.1593 35 24.7473 35C22.6233 35 20.7333 34.694 19.0773 34.082C17.4213 33.47 15.8193 32.804 14.2713 32.084C11.8593 34.028 8.76332 35 4.98332 35C3.61532 35 2.57132 34.73 1.85132 34.19C1.16732 33.614 0.825317 33.002 0.825317 32.354C0.825317 31.886 0.951317 31.418 1.20332 30.95C1.49132 30.446 1.88732 30.014 2.39132 29.654C2.93132 29.258 3.56132 28.934 4.28132 28.682C5.00132 28.43 5.81132 28.304 6.71132 28.304C8.11532 28.304 9.46532 28.502 10.7613 28.898C12.0933 29.294 13.4433 29.744 14.8113 30.248C16.4313 28.16 17.8533 24.812 19.0773 20.204C19.8693 17.252 20.7873 14.552 21.8313 12.104C22.9113 9.62 24.0993 7.514 25.3953 5.786C26.7273 4.022 28.1853 2.654 29.7693 1.682C31.3533 0.709999 33.0453 0.223999 34.8453 0.223999ZM6.71132 33.866C8.07932 33.866 9.30332 33.704 10.3833 33.38C11.4633 33.056 12.4713 32.498 13.4073 31.706C12.1473 31.094 10.8513 30.572 9.51932 30.14C8.22332 29.708 6.78332 29.492 5.19932 29.492C4.19132 29.492 3.47132 29.654 3.03932 29.978C2.60732 30.302 2.39132 30.716 2.39132 31.22C2.39132 31.94 2.76932 32.57 3.52532 33.11C4.28132 33.614 5.34332 33.866 6.71132 33.866Z" fill="#292929"/>
<path d="M49.2756 31.598C49.3475 31.526 49.4376 31.526 49.5456 31.598C49.6536 31.67 49.6896 31.778 49.6536 31.922C48.8976 32.966 48.1416 33.74 47.3856 34.244C46.6656 34.748 46.0536 35 45.5496 35C45.2256 35 44.9556 34.838 44.7396 34.514C44.5596 34.19 44.4336 33.758 44.3616 33.218C44.3256 32.642 44.3436 32.012 44.4156 31.328C44.5236 30.608 44.6856 29.87 44.9016 29.114C43.9296 30.626 42.9036 31.94 41.8236 33.056C40.7436 34.136 39.6996 34.784 38.6916 35C38.0436 35 37.4855 34.694 37.0176 34.082C36.5856 33.434 36.3696 32.444 36.3696 31.112C36.3696 29.924 36.6036 28.754 37.0716 27.602C37.5756 26.414 38.2416 25.352 39.0696 24.416C39.8976 23.444 40.8516 22.67 41.9316 22.094C43.0116 21.518 44.1456 21.23 45.3336 21.23C45.9816 21.23 46.5396 21.302 47.0076 21.446C47.4756 21.59 47.9076 21.806 48.3036 22.094C48.5196 21.914 48.8076 21.752 49.1676 21.608C49.5636 21.428 49.9235 21.338 50.2476 21.338C50.4276 21.338 50.4816 21.428 50.4096 21.608C49.5816 22.616 48.8616 23.732 48.2496 24.956C47.6736 26.18 47.2236 27.368 46.8996 28.52C46.5756 29.672 46.3596 30.698 46.2516 31.598C46.1796 32.462 46.2516 33.056 46.4676 33.38C46.6476 33.632 46.9715 33.65 47.4396 33.434C47.9076 33.182 48.5196 32.57 49.2756 31.598ZM39.8796 33.164C40.2756 33.164 40.7796 32.894 41.3916 32.354C42.0396 31.778 42.7056 31.04 43.3896 30.14C44.0736 29.24 44.7396 28.232 45.3876 27.116C46.0716 25.964 46.6656 24.812 47.1696 23.66C47.0256 23.192 46.6836 22.814 46.1436 22.526C45.6395 22.238 45.0456 22.094 44.3616 22.094C43.5696 22.094 42.8136 22.31 42.0936 22.742C41.4095 23.138 40.7976 23.714 40.2576 24.47C39.7176 25.19 39.2856 26.054 38.9616 27.062C38.6376 28.07 38.4756 29.186 38.4756 30.41C38.4756 31.202 38.6016 31.868 38.8536 32.408C39.1416 32.912 39.4836 33.164 39.8796 33.164Z" fill="#292929"/>
<path d="M63.6906 22.472C63.7266 22.364 63.8166 22.256 63.9606 22.148C64.1046 22.004 64.2666 21.86 64.4466 21.716C64.6626 21.572 64.8606 21.464 65.0406 21.392C65.2566 21.284 65.4186 21.23 65.5266 21.23C65.8506 21.23 65.9766 21.356 65.9046 21.608C65.1126 23.84 64.3386 26.018 63.5826 28.142C62.8266 30.23 62.0166 32.408 61.1526 34.676C60.1806 37.196 59.1366 39.302 58.0206 40.994C56.9406 42.722 55.7886 44.108 54.5646 45.152C53.3766 46.232 52.1346 47.006 50.8386 47.474C49.5426 47.942 48.2106 48.176 46.8426 48.176C44.9346 48.176 43.4946 47.69 42.5226 46.718C41.5146 45.782 41.0106 44.612 41.0106 43.208C41.0106 42.56 41.1906 41.876 41.5506 41.156C41.8746 40.436 42.3966 39.806 43.1166 39.266C43.2246 39.194 43.3326 39.23 43.4406 39.374C43.5126 39.518 43.5126 39.626 43.4406 39.698C42.8646 40.382 42.5766 41.156 42.5766 42.02C42.5766 43.532 43.0086 44.756 43.8726 45.692C44.7366 46.628 46.0506 47.096 47.8146 47.096C49.0746 47.096 50.2266 46.898 51.2706 46.502C52.3506 46.106 53.3586 45.404 54.2946 44.396C55.2666 43.388 56.1846 42.038 57.0486 40.346C57.9486 38.654 58.8666 36.53 59.8026 33.974C60.1986 32.786 60.5766 31.688 60.9366 30.68C61.3326 29.672 61.7286 28.628 62.1246 27.548C60.7566 29.708 59.3166 31.472 57.8046 32.84C56.3286 34.208 55.0146 34.946 53.8626 35.054C53.3946 35.054 53.0526 34.838 52.8366 34.406C52.6206 33.974 52.5126 33.38 52.5126 32.624C52.5126 31.976 52.5846 31.274 52.7286 30.518C52.8726 29.726 53.0706 28.916 53.3226 28.088C53.6106 27.26 53.9526 26.432 54.3486 25.604C54.7806 24.74 55.2486 23.912 55.7526 23.12C55.3566 23.408 54.9426 23.732 54.5106 24.092C54.0786 24.416 53.7186 24.722 53.4306 25.01C53.3226 25.082 53.2146 25.064 53.1066 24.956C53.0346 24.812 53.0346 24.686 53.1066 24.578C53.6106 24.074 54.2946 23.498 55.1586 22.85C56.0226 22.202 56.8686 21.662 57.6966 21.23C58.0566 21.23 58.2006 21.392 58.1286 21.716C57.5886 22.436 57.0846 23.246 56.6166 24.146C56.1846 25.01 55.8066 25.892 55.4826 26.792C55.1586 27.656 54.9066 28.52 54.7266 29.384C54.5466 30.248 54.4566 31.022 54.4566 31.706C54.4566 32.714 54.7986 33.218 55.4826 33.218C56.0586 33.218 56.7426 32.84 57.5346 32.084C58.3626 31.292 59.1726 30.356 59.9646 29.276C60.7926 28.16 61.5306 26.99 62.1786 25.766C62.8626 24.506 63.3666 23.408 63.6906 22.472Z" fill="#292929"/>
<path d="M73.2094 21.176C73.9294 21.176 74.5234 21.302 74.9914 21.554C75.4954 21.77 75.7474 22.022 75.7474 22.31C75.7474 22.706 75.6574 23.156 75.4774 23.66C75.3334 24.164 75.1714 24.578 74.9914 24.902C74.9194 24.974 74.8114 24.992 74.6674 24.956C74.5594 24.884 74.5234 24.794 74.5594 24.686C74.6674 24.434 74.7394 24.146 74.7754 23.822C74.8114 23.498 74.7934 23.21 74.7214 22.958C74.5414 22.238 74.0374 21.878 73.2094 21.878C72.5974 21.878 72.0934 22.058 71.6974 22.418C71.3374 22.778 71.1574 23.318 71.1574 24.038C71.1574 24.614 71.3014 25.172 71.5894 25.712C71.9134 26.216 72.2554 26.738 72.6154 27.278C73.0114 27.782 73.3534 28.34 73.6414 28.952C73.9654 29.528 74.1274 30.176 74.1274 30.896C74.1274 32.048 73.7134 33.02 72.8854 33.812C72.0934 34.604 70.8874 35 69.2674 35C68.1514 35 67.2334 34.802 66.5134 34.406C65.7934 34.01 65.4334 33.596 65.4334 33.164C65.4334 32.84 65.6314 32.354 66.0274 31.706C66.4234 31.058 66.8734 30.536 67.3774 30.14C67.4854 30.068 67.5754 30.086 67.6474 30.194C67.7554 30.302 67.7734 30.41 67.7014 30.518C67.4134 30.806 67.1974 31.148 67.0534 31.544C66.9094 31.904 66.8734 32.228 66.9454 32.516C67.0534 33.128 67.3234 33.596 67.7554 33.92C68.2234 34.208 68.7634 34.352 69.3754 34.352C70.3114 34.352 71.0314 34.1 71.5354 33.596C72.0754 33.092 72.3454 32.444 72.3454 31.652C72.3454 30.968 72.1834 30.338 71.8594 29.762C71.5354 29.15 71.1754 28.574 70.7794 28.034C70.4194 27.458 70.0774 26.9 69.7534 26.36C69.4654 25.784 69.3214 25.172 69.3214 24.524C69.3214 23.588 69.6634 22.796 70.3474 22.148C71.0674 21.5 72.0214 21.176 73.2094 21.176Z" fill="#292929"/>
<path d="M83.3871 21.176C84.1071 21.176 84.7011 21.302 85.1691 21.554C85.6731 21.77 85.9251 22.022 85.9251 22.31C85.9251 22.706 85.8351 23.156 85.6551 23.66C85.5111 24.164 85.3491 24.578 85.1691 24.902C85.0971 24.974 84.9891 24.992 84.8451 24.956C84.7371 24.884 84.7011 24.794 84.7371 24.686C84.8451 24.434 84.9171 24.146 84.9531 23.822C84.9891 23.498 84.9711 23.21 84.8991 22.958C84.7191 22.238 84.2151 21.878 83.3871 21.878C82.7751 21.878 82.2711 22.058 81.8751 22.418C81.5151 22.778 81.3351 23.318 81.3351 24.038C81.3351 24.614 81.4791 25.172 81.7671 25.712C82.0911 26.216 82.4331 26.738 82.7931 27.278C83.1891 27.782 83.5311 28.34 83.8191 28.952C84.1431 29.528 84.3051 30.176 84.3051 30.896C84.3051 32.048 83.8911 33.02 83.0631 33.812C82.2711 34.604 81.0651 35 79.4451 35C78.3291 35 77.4111 34.802 76.6911 34.406C75.9711 34.01 75.6111 33.596 75.6111 33.164C75.6111 32.84 75.8091 32.354 76.2051 31.706C76.6011 31.058 77.0511 30.536 77.5551 30.14C77.6631 30.068 77.7531 30.086 77.8251 30.194C77.9331 30.302 77.9511 30.41 77.8791 30.518C77.5911 30.806 77.3751 31.148 77.2311 31.544C77.0871 31.904 77.0511 32.228 77.1231 32.516C77.2311 33.128 77.5011 33.596 77.9331 33.92C78.4011 34.208 78.9411 34.352 79.5531 34.352C80.4891 34.352 81.2091 34.1 81.7131 33.596C82.2531 33.092 82.5231 32.444 82.5231 31.652C82.5231 30.968 82.3611 30.338 82.0371 29.762C81.7131 29.15 81.3531 28.574 80.9571 28.034C80.5971 27.458 80.2551 26.9 79.9311 26.36C79.6431 25.784 79.4991 25.172 79.4991 24.524C79.4991 23.588 79.8411 22.796 80.5251 22.148C81.2451 21.5 82.1991 21.176 83.3871 21.176Z" fill="#292929"/>
<path d="M100.639 31.598C100.711 31.526 100.801 31.526 100.909 31.598C101.017 31.67 101.053 31.778 101.017 31.922C100.261 32.966 99.5048 33.74 98.7488 34.244C98.0288 34.748 97.4168 35 96.9128 35C96.5888 35 96.3188 34.838 96.1028 34.514C95.9228 34.19 95.7968 33.758 95.7248 33.218C95.6888 32.642 95.7068 32.012 95.7788 31.328C95.8868 30.608 96.0488 29.87 96.2648 29.114C95.2928 30.626 94.2668 31.94 93.1868 33.056C92.1068 34.136 91.0628 34.784 90.0548 35C89.4068 35 88.8488 34.694 88.3808 34.082C87.9488 33.434 87.7328 32.444 87.7328 31.112C87.7328 29.924 87.9668 28.754 88.4348 27.602C88.9388 26.414 89.6048 25.352 90.4328 24.416C91.2608 23.444 92.2148 22.67 93.2948 22.094C94.3748 21.518 95.5088 21.23 96.6968 21.23C97.3448 21.23 97.9028 21.302 98.3708 21.446C98.8388 21.59 99.2708 21.806 99.6668 22.094C99.8828 21.914 100.171 21.752 100.531 21.608C100.927 21.428 101.287 21.338 101.611 21.338C101.791 21.338 101.845 21.428 101.773 21.608C100.945 22.616 100.225 23.732 99.6128 24.956C99.0368 26.18 98.5868 27.368 98.2628 28.52C97.9388 29.672 97.7228 30.698 97.6148 31.598C97.5428 32.462 97.6148 33.056 97.8308 33.38C98.0108 33.632 98.3348 33.65 98.8028 33.434C99.2708 33.182 99.8828 32.57 100.639 31.598ZM91.2428 33.164C91.6388 33.164 92.1428 32.894 92.7548 32.354C93.4028 31.778 94.0688 31.04 94.7528 30.14C95.4368 29.24 96.1028 28.232 96.7508 27.116C97.4348 25.964 98.0288 24.812 98.5328 23.66C98.3888 23.192 98.0468 22.814 97.5068 22.526C97.0028 22.238 96.4088 22.094 95.7248 22.094C94.9328 22.094 94.1768 22.31 93.4568 22.742C92.7728 23.138 92.1608 23.714 91.6208 24.47C91.0808 25.19 90.6488 26.054 90.3248 27.062C90.0008 28.07 89.8388 29.186 89.8388 30.41C89.8388 31.202 89.9648 31.868 90.2168 32.408C90.5048 32.912 90.8468 33.164 91.2428 33.164Z" fill="#292929"/>
<path d="M59.0913 52.226C59.8473 52.226 60.4233 52.478 60.8193 52.982C61.2153 53.45 61.4133 54.008 61.4133 54.656C61.4133 55.16 61.3413 55.664 61.1973 56.168C61.0893 56.636 60.9273 57.05 60.7113 57.41C60.6393 57.482 60.5493 57.5 60.4413 57.464C60.3693 57.428 60.3333 57.338 60.3333 57.194C60.5853 56.366 60.5133 55.664 60.1173 55.088C59.7213 54.512 59.0013 54.224 57.9573 54.224C56.3733 54.224 54.8613 54.584 53.4213 55.304C51.9813 55.988 50.5773 57.176 49.2093 58.868C47.8413 60.56 46.5093 62.81 45.2133 65.618C43.9173 68.426 42.6393 71.954 41.3793 76.202C41.8473 76.346 42.2973 76.49 42.7293 76.634C43.1973 76.742 43.6473 76.85 44.0793 76.958C44.2593 77.102 44.0793 77.3 43.5393 77.552C43.0353 77.804 42.4233 77.912 41.7033 77.876C41.5593 77.84 41.3073 77.75 40.9473 77.606C40.8393 78.038 40.7133 78.488 40.5693 78.956C40.4613 79.388 40.3353 79.838 40.1913 80.306C39.0753 84.518 39.3093 86.624 40.8933 86.624C42.2973 86.624 43.6653 85.616 44.9973 83.6C45.1053 83.492 45.2133 83.474 45.3213 83.546C45.4293 83.618 45.4653 83.744 45.4293 83.924C45.0333 84.536 44.5833 85.148 44.0793 85.76C43.6113 86.336 43.1073 86.876 42.5673 87.38C42.0273 87.848 41.4873 88.244 40.9473 88.568C40.4433 88.856 39.9753 89 39.5433 89C38.4633 89 37.7073 88.46 37.2753 87.38C36.8793 86.264 36.9873 84.518 37.5993 82.142C38.0313 80.306 38.5173 78.596 39.0573 77.012C36.9333 76.364 34.6653 75.788 32.2533 75.284C29.8413 74.78 27.3393 74.42 24.7473 74.204C23.7393 76.832 22.6053 79.082 21.3453 80.954C20.0853 82.826 18.7173 84.356 17.2413 85.544C15.8013 86.732 14.2533 87.614 12.5973 88.19C10.9773 88.73 9.28532 89 7.52132 89C5.64932 89 4.24532 88.55 3.30932 87.65C2.37332 86.714 1.90532 85.508 1.90532 84.032C1.90532 82.628 2.31932 81.278 3.14732 79.982C4.01132 78.686 5.23532 77.552 6.81932 76.58C8.43932 75.572 10.4013 74.78 12.7053 74.204C15.0453 73.592 17.7093 73.286 20.6973 73.286C21.0933 73.286 21.4893 73.286 21.8853 73.286C22.2813 73.286 22.6773 73.304 23.0733 73.34C23.2533 72.836 23.4153 72.332 23.5593 71.828C23.7033 71.288 23.8653 70.73 24.0453 70.154C24.6213 68.03 25.1793 66.23 25.7193 64.754C26.2953 63.242 26.8533 61.982 27.3933 60.974C27.9693 59.93 28.5453 59.12 29.1213 58.544C29.7333 57.932 30.3813 57.446 31.0653 57.086C30.1293 56.726 29.0133 56.42 27.7173 56.168C26.4573 55.916 25.0713 55.79 23.5593 55.79C21.8673 55.79 20.4093 56.042 19.1853 56.546C17.9973 57.05 17.0433 57.734 16.3233 58.598C15.6393 59.462 15.1713 60.452 14.9193 61.568C14.7033 62.684 14.7213 63.854 14.9733 65.078C14.9373 65.258 14.8653 65.366 14.7573 65.402C14.6493 65.438 14.5413 65.384 14.4333 65.24C14.1093 63.728 14.1093 62.306 14.4333 60.974C14.7573 59.606 15.3873 58.418 16.3233 57.41C17.2593 56.402 18.4833 55.61 19.9953 55.034C21.5433 54.458 23.3793 54.17 25.5033 54.17C26.9793 54.17 28.4193 54.35 29.8233 54.71C31.2273 55.034 32.4873 55.43 33.6033 55.898C33.7473 56.114 33.7473 56.312 33.6033 56.492C33.4593 56.672 33.1173 56.87 32.5773 57.086C31.8573 57.374 31.2273 57.77 30.6873 58.274C30.1833 58.778 29.7153 59.462 29.2833 60.326C28.8513 61.19 28.4373 62.252 28.0413 63.512C27.6453 64.772 27.2133 66.302 26.7453 68.102C26.4573 69.038 26.1693 69.956 25.8813 70.856C25.6293 71.756 25.3593 72.62 25.0713 73.448C27.4473 73.628 29.8773 73.916 32.3613 74.312C34.8453 74.708 37.2213 75.176 39.4893 75.716C40.7133 72.008 42.0993 68.714 43.6473 65.834C45.2313 62.918 46.8693 60.452 48.5613 58.436C50.2893 56.42 52.0353 54.89 53.7993 53.846C55.5993 52.766 57.3633 52.226 59.0913 52.226ZM8.97932 87.704C10.5633 87.704 12.0213 87.488 13.3533 87.056C14.6853 86.588 15.9093 85.832 17.0253 84.788C18.1413 83.708 19.1673 82.304 20.1033 80.576C21.0753 78.848 21.9933 76.688 22.8573 74.096C22.3173 74.024 21.7773 73.988 21.2373 73.988C20.7333 73.988 20.2113 73.988 19.6713 73.988C17.1153 73.988 14.8293 74.24 12.8133 74.744C10.7973 75.212 9.10532 75.86 7.73732 76.688C6.36932 77.516 5.32532 78.47 4.60532 79.55C3.88532 80.63 3.52532 81.764 3.52532 82.952C3.52532 84.5 3.99332 85.688 4.92932 86.516C5.90132 87.308 7.25132 87.704 8.97932 87.704Z" fill="#292929"/>
<path d="M48.736 78.956C48.628 79.028 48.52 79.01 48.412 78.902C48.34 78.758 48.34 78.632 48.412 78.524C48.916 78.02 49.6 77.444 50.464 76.796C51.328 76.148 52.192 75.608 53.056 75.176C53.344 75.176 53.488 75.338 53.488 75.662C53.02 76.49 52.552 77.39 52.084 78.362C51.652 79.334 51.256 80.306 50.896 81.278C50.572 82.214 50.302 83.132 50.086 84.032C49.87 84.896 49.762 85.616 49.762 86.192C49.762 86.948 50.014 87.326 50.518 87.326C50.914 87.326 51.292 87.164 51.652 86.84C52.048 86.48 52.498 86.012 53.002 85.436C53.074 85.364 53.164 85.382 53.272 85.49C53.38 85.598 53.398 85.724 53.326 85.868C52.678 86.66 51.976 87.38 51.22 88.028C50.5 88.676 49.816 89 49.168 89C48.232 89 47.764 88.406 47.764 87.218C47.764 86.534 47.872 85.724 48.088 84.788C48.34 83.816 48.646 82.844 49.006 81.872C49.366 80.9 49.762 79.964 50.194 79.064C50.662 78.164 51.112 77.39 51.544 76.742C51.148 77.03 50.644 77.408 50.032 77.876C49.456 78.308 49.024 78.668 48.736 78.956ZM53.596 72.854C53.488 72.962 53.38 72.98 53.272 72.908C53.2 72.8 53.146 72.674 53.11 72.53C53.074 72.35 53.056 72.152 53.056 71.936C53.056 71.72 53.11 71.54 53.218 71.396C54.154 70.1 55.468 68.714 57.16 67.238C57.268 67.202 57.376 67.238 57.484 67.346C57.592 67.418 57.61 67.49 57.538 67.562C56.782 68.246 56.062 69.074 55.378 70.046C54.694 70.982 54.1 71.918 53.596 72.854Z" fill="#292929"/>
<path d="M77.8643 48.878C78.8003 48.878 79.3943 49.31 79.6463 50.174C79.9343 51.038 79.8263 51.956 79.3223 52.928C79.2503 53 79.1603 53 79.0523 52.928C78.9443 52.856 78.8723 52.766 78.8363 52.658C78.9083 52.226 78.7463 51.866 78.3503 51.578C77.9903 51.29 77.4143 51.146 76.6223 51.146C75.0743 51.146 73.5443 51.794 72.0323 53.09C70.5203 54.386 69.0623 56.078 67.6583 58.166C66.2543 60.218 64.9403 62.522 63.7163 65.078C62.5283 67.634 61.4843 70.19 60.5843 72.746C59.7203 75.266 59.0363 77.66 58.5323 79.928C58.0283 82.16 57.7763 83.978 57.7763 85.382C57.7763 86.462 58.0823 87.002 58.6943 87.002C59.1263 87.002 59.5403 86.822 59.9363 86.462C60.3683 86.102 60.8543 85.562 61.3943 84.842C61.5023 84.77 61.5923 84.788 61.6643 84.896C61.7723 84.968 61.8083 85.076 61.7723 85.22C61.0523 86.336 60.2603 87.254 59.3963 87.974C58.5323 88.658 57.7943 89 57.1823 89C56.7143 89 56.3363 88.82 56.0483 88.46C55.7603 88.064 55.6163 87.542 55.6163 86.894C55.6163 85.886 55.7963 84.59 56.1563 83.006C56.5163 81.386 57.0203 79.586 57.6683 77.606C58.3163 75.626 59.0903 73.556 59.9903 71.396C60.9263 69.2 61.9343 67.04 63.0143 64.916C64.0943 62.792 65.2283 60.758 66.4163 58.814C67.6403 56.87 68.8823 55.16 70.1423 53.684C71.4383 52.208 72.7343 51.038 74.0303 50.174C75.3263 49.31 76.6043 48.878 77.8643 48.878Z" fill="#292929"/>
<path d="M85.0889 48.878C86.0249 48.878 86.6189 49.31 86.8709 50.174C87.1589 51.038 87.0509 51.956 86.5469 52.928C86.4749 53 86.3849 53 86.2769 52.928C86.1689 52.856 86.0969 52.766 86.0609 52.658C86.1329 52.226 85.9709 51.866 85.5749 51.578C85.2149 51.29 84.6389 51.146 83.8469 51.146C82.2989 51.146 80.7689 51.794 79.2569 53.09C77.7449 54.386 76.2869 56.078 74.8829 58.166C73.4789 60.218 72.1649 62.522 70.9409 65.078C69.7529 67.634 68.7089 70.19 67.8089 72.746C66.9449 75.266 66.2609 77.66 65.7569 79.928C65.2529 82.16 65.0009 83.978 65.0009 85.382C65.0009 86.462 65.3069 87.002 65.9189 87.002C66.3509 87.002 66.7649 86.822 67.1609 86.462C67.5929 86.102 68.0789 85.562 68.6189 84.842C68.7269 84.77 68.8169 84.788 68.8889 84.896C68.9969 84.968 69.0329 85.076 68.9969 85.22C68.2769 86.336 67.4849 87.254 66.6209 87.974C65.7569 88.658 65.0189 89 64.4069 89C63.9389 89 63.5609 88.82 63.2729 88.46C62.9849 88.064 62.8409 87.542 62.8409 86.894C62.8409 85.886 63.0209 84.59 63.3809 83.006C63.7409 81.386 64.2449 79.586 64.8929 77.606C65.5409 75.626 66.3149 73.556 67.2149 71.396C68.1509 69.2 69.1589 67.04 70.2389 64.916C71.3189 62.792 72.4529 60.758 73.6409 58.814C74.8649 56.87 76.1069 55.16 77.3669 53.684C78.6629 52.208 79.9589 51.038 81.2549 50.174C82.5509 49.31 83.8289 48.878 85.0889 48.878Z" fill="#292929"/>
<path d="M83.0256 85.598C83.0975 85.526 83.1876 85.526 83.2956 85.598C83.4036 85.67 83.4396 85.778 83.4035 85.922C82.6476 86.966 81.8915 87.74 81.1356 88.244C80.4156 88.748 79.8036 89 79.2996 89C78.9756 89 78.7056 88.838 78.4896 88.514C78.3096 88.19 78.1835 87.758 78.1115 87.218C78.0755 86.642 78.0936 86.012 78.1656 85.328C78.2736 84.608 78.4355 83.87 78.6516 83.114C77.6796 84.626 76.6536 85.94 75.5736 87.056C74.4936 88.136 73.4496 88.784 72.4416 89C71.7935 89 71.2356 88.694 70.7676 88.082C70.3356 87.434 70.1196 86.444 70.1196 85.112C70.1196 83.924 70.3535 82.754 70.8215 81.602C71.3255 80.414 71.9915 79.352 72.8195 78.416C73.6476 77.444 74.6015 76.67 75.6815 76.094C76.7616 75.518 77.8955 75.23 79.0835 75.23C79.7316 75.23 80.2896 75.302 80.7576 75.446C81.2256 75.59 81.6576 75.806 82.0536 76.094C82.2696 75.914 82.5575 75.752 82.9175 75.608C83.3136 75.428 83.6736 75.338 83.9976 75.338C84.1776 75.338 84.2316 75.428 84.1596 75.608C83.3316 76.616 82.6115 77.732 81.9995 78.956C81.4236 80.18 80.9735 81.368 80.6496 82.52C80.3256 83.672 80.1096 84.698 80.0016 85.598C79.9296 86.462 80.0015 87.056 80.2176 87.38C80.3976 87.632 80.7215 87.65 81.1896 87.434C81.6576 87.182 82.2696 86.57 83.0256 85.598ZM73.6296 87.164C74.0256 87.164 74.5296 86.894 75.1416 86.354C75.7896 85.778 76.4556 85.04 77.1395 84.14C77.8235 83.24 78.4895 82.232 79.1376 81.116C79.8215 79.964 80.4156 78.812 80.9196 77.66C80.7756 77.192 80.4336 76.814 79.8936 76.526C79.3896 76.238 78.7955 76.094 78.1115 76.094C77.3195 76.094 76.5636 76.31 75.8436 76.742C75.1596 77.138 74.5476 77.714 74.0076 78.47C73.4676 79.19 73.0356 80.054 72.7116 81.062C72.3876 82.07 72.2256 83.186 72.2256 84.41C72.2256 85.202 72.3516 85.868 72.6036 86.408C72.8916 86.912 73.2336 87.164 73.6296 87.164Z" fill="#292929"/>
<path d="M90.8526 76.688C90.8526 77.228 90.7986 77.858 90.6906 78.578C90.5826 79.298 90.4386 80.018 90.2586 80.738C90.9786 79.01 91.7706 77.66 92.6346 76.688C93.4986 75.68 94.4346 75.176 95.4426 75.176C95.8386 75.176 96.1986 75.284 96.5226 75.5C96.8466 75.716 97.0086 76.022 97.0086 76.418C97.0086 76.706 96.9006 77.084 96.6846 77.552C96.4686 77.984 96.2526 78.308 96.0366 78.524C95.8206 78.668 95.7126 78.614 95.7126 78.362C95.7126 77.75 95.2986 77.444 94.4706 77.444C93.2106 77.444 92.0766 78.398 91.0686 80.306C90.0606 82.178 89.1066 84.788 88.2066 88.136C88.1346 88.496 87.8826 88.73 87.4506 88.838C87.0546 88.946 86.7126 89 86.4246 89C86.0286 89 85.9386 88.802 86.1546 88.406C86.4786 87.65 86.7846 86.84 87.0726 85.976C87.3606 85.076 87.6306 84.176 87.8826 83.276C88.1706 82.376 88.4046 81.494 88.5846 80.63C88.7646 79.766 88.9086 78.974 89.0166 78.254C89.1606 77.174 88.9806 76.634 88.4766 76.634C88.1886 76.634 87.8466 76.796 87.4506 77.12C87.0906 77.444 86.7486 77.822 86.4246 78.254C86.2806 78.326 86.1546 78.326 86.0466 78.254C85.9386 78.146 85.9206 78.02 85.9926 77.876C86.5326 77.192 87.1266 76.58 87.7746 76.04C88.4586 75.464 89.0886 75.176 89.6646 75.176C90.4566 75.176 90.8526 75.68 90.8526 76.688Z" fill="#292929"/>
<path d="M107.987 76.472C108.023 76.364 108.113 76.256 108.257 76.148C108.401 76.004 108.563 75.86 108.743 75.716C108.959 75.572 109.157 75.464 109.337 75.392C109.553 75.284 109.715 75.23 109.823 75.23C110.147 75.23 110.273 75.356 110.201 75.608C109.409 77.84 108.635 80.018 107.879 82.142C107.123 84.23 106.313 86.408 105.449 88.676C104.477 91.196 103.433 93.302 102.317 94.994C101.237 96.722 100.085 98.108 98.8615 99.152C97.6735 100.232 96.4315 101.006 95.1355 101.474C93.8395 101.942 92.5075 102.176 91.1395 102.176C89.2315 102.176 87.7915 101.69 86.8195 100.718C85.8115 99.782 85.3075 98.612 85.3075 97.208C85.3075 96.56 85.4875 95.876 85.8475 95.156C86.1715 94.436 86.6935 93.806 87.4135 93.266C87.5215 93.194 87.6295 93.23 87.7375 93.374C87.8095 93.518 87.8095 93.626 87.7375 93.698C87.1615 94.382 86.8735 95.156 86.8735 96.02C86.8735 97.532 87.3055 98.756 88.1695 99.692C89.0335 100.628 90.3475 101.096 92.1115 101.096C93.3715 101.096 94.5235 100.898 95.5675 100.502C96.6475 100.106 97.6555 99.404 98.5915 98.396C99.5635 97.388 100.481 96.038 101.345 94.346C102.245 92.654 103.163 90.53 104.099 87.974C104.495 86.786 104.873 85.688 105.233 84.68C105.629 83.672 106.025 82.628 106.421 81.548C105.053 83.708 103.613 85.472 102.101 86.84C100.625 88.208 99.3115 88.946 98.1595 89.054C97.6915 89.054 97.3495 88.838 97.1335 88.406C96.9175 87.974 96.8095 87.38 96.8095 86.624C96.8095 85.976 96.8815 85.274 97.0255 84.518C97.1695 83.726 97.3675 82.916 97.6195 82.088C97.9075 81.26 98.2495 80.432 98.6455 79.604C99.0775 78.74 99.5455 77.912 100.049 77.12C99.6535 77.408 99.2395 77.732 98.8075 78.092C98.3755 78.416 98.0155 78.722 97.7275 79.01C97.6195 79.082 97.5115 79.064 97.4035 78.956C97.3315 78.812 97.3315 78.686 97.4035 78.578C97.9075 78.074 98.5915 77.498 99.4555 76.85C100.319 76.202 101.165 75.662 101.993 75.23C102.353 75.23 102.497 75.392 102.425 75.716C101.885 76.436 101.381 77.246 100.913 78.146C100.481 79.01 100.103 79.892 99.7795 80.792C99.4555 81.656 99.2035 82.52 99.0235 83.384C98.8435 84.248 98.7535 85.022 98.7535 85.706C98.7535 86.714 99.0955 87.218 99.7795 87.218C100.355 87.218 101.039 86.84 101.831 86.084C102.659 85.292 103.469 84.356 104.261 83.276C105.089 82.16 105.827 80.99 106.475 79.766C107.159 78.506 107.663 77.408 107.987 76.472Z" fill="#292929"/>
</svg>
