<svg width="534" height="2338" viewBox="0 0 534 2338" fill="none" xmlns="http://www.w3.org/2000/svg">
<path d="M581.14 2338H175.138C46.9813 2338 -46.8123 2146.19 24.7786 1792.87C123.543 1305.44 83.2224 1393.83 24.7784 1148.16C-53.1991 820.367 170.936 777.012 151.253 568.943C96.4823 -10.0238 499.766 508.278 472.013 46.4049C444.891 -404.947 789.643 -253.486 643.61 129.289C597.634 249.801 734.028 537.296 690.189 753.837C655.118 927.069 677.403 1083.57 643.61 1148.16C668.635 1161.83 624.759 1287.21 643.61 1615.44C662.461 1943.67 609.818 2233.91 581.14 2338Z" fill="url(#paint0_linear_14_23)" fill-opacity="0.5"/>
<defs>
<linearGradient id="paint0_linear_14_23" x1="880.916" y1="-1162.48" x2="-1145.77" y2="434.504" gradientUnits="userSpaceOnUse">
<stop stop-color="#9746C9" stop-opacity="0"/>
<stop offset="1" stop-color="#DC27B4" stop-opacity="0.79"/>
</linearGradient>
</defs>
</svg>
