<svg width="600" height="849" viewBox="0 0 600 849" fill="none" xmlns="http://www.w3.org/2000/svg">
<path d="M557.116 848.077H167.898C45.0391 848.077 -44.8771 784.757 23.7543 668.119C118.436 507.208 79.7821 536.388 23.7541 455.286C-50.9999 347.077 163.87 332.764 145 264.077C92.4938 72.9486 479.106 244.05 452.5 91.5768C426.5 -57.4232 757 -7.42319 617.004 118.938C572.928 158.722 703.684 253.63 661.657 325.114C628.036 382.301 649.4 433.966 617.004 455.286C640.994 459.801 598.933 501.191 617.004 609.546C635.076 717.901 584.608 813.714 557.116 848.077Z" fill="url(#paint0_linear_14_23)" fill-opacity="0.5"/>
<defs>
<linearGradient id="paint0_linear_14_23" x1="844.5" y1="-307.5" x2="339.5" y2="848.077" gradientUnits="userSpaceOnUse">
<stop stop-color="#9746C9" stop-opacity="0"/>
<stop offset="1" stop-color="#DC27B4" stop-opacity="0.79"/>
</linearGradient>
</defs>
</svg>
