<svg width="616" height="1387" viewBox="0 0 616 1387" fill="none" xmlns="http://www.w3.org/2000/svg">
<path d="M-52.9772 -725.639L454.586 -584.011C614.801 -539.306 688.18 -349.34 517.855 -84.6525C282.881 280.501 353.508 222.099 370.372 443.896C392.871 739.824 102.75 697.181 79.7602 874.626C15.7881 1368.38 -369.812 802.786 -440.773 1191.12C-510.118 1570.61 -906.461 1326.17 -636.335 1063.31C-551.29 980.551 -656.036 697.277 -551.696 535.046C-468.223 405.262 -460.281 269.183 -403.261 228.025C-431.418 208.084 -347.885 120.601 -296.366 -155.063C-244.848 -430.727 -112.641 -650.307 -52.9772 -725.639Z" fill="url(#paint0_linear_14_27)" fill-opacity="0.5"/>
<defs>
<linearGradient id="paint0_linear_14_27" x1="-331.873" y1="1370.07" x2="230.807" y2="-646.454" gradientUnits="userSpaceOnUse">
<stop stop-color="#9746C9" stop-opacity="0"/>
<stop offset="1" stop-color="#DC27B4" stop-opacity="0.79"/>
</linearGradient>
</defs>
</svg>
